<svg width="640" height="520" viewBox="0 0 640 520" fill="none" xmlns="http://www.w3.org/2000/svg"><defs><linearGradient id="b" x1="0" y1="0" x2="640" y2="520"><stop stop-color="#F8FAFC"/><stop offset="1" stop-color="#D8E9F4"/></linearGradient></defs><rect width="640" height="520" rx="18" fill="url(#b)"/><g opacity=".25" stroke="#38BDF8"><path d="M70 360H280L360 280H570"/><path d="M70 200H260L350 110H560"/><circle cx="360" cy="280" r="8" fill="#38BDF8"/></g><g transform="translate(168 160)"><rect x="0" y="70" width="330" height="145" rx="46" fill="#DCE7EF" stroke="#71859A"/><rect x="44" y="40" width="75" height="205" rx="18" fill="#2A69A1"/><rect x="210" y="40" width="75" height="205" rx="18" fill="#2A69A1"/><rect x="28" y="96" width="95" height="90" rx="8" fill="#13273B"/><rect x="205" y="96" width="95" height="90" rx="8" fill="#13273B"/><g fill="#fff"><circle cx="52" cy="122" r="5"/><circle cx="75" cy="122" r="5"/><circle cx="98" cy="122" r="5"/><circle cx="52" cy="158" r="5"/><circle cx="75" cy="158" r="5"/><circle cx="98" cy="158" r="5"/><circle cx="229" cy="122" r="5"/><circle cx="252" cy="122" r="5"/><circle cx="275" cy="122" r="5"/><circle cx="229" cy="158" r="5"/><circle cx="252" cy="158" r="5"/><circle cx="275" cy="158" r="5"/></g></g></svg>
