<svg width="640" height="520" viewBox="0 0 640 520" fill="none" xmlns="http://www.w3.org/2000/svg"><defs><linearGradient id="b" x1="0" y1="0" x2="640" y2="520"><stop stop-color="#F8FAFC"/><stop offset="1" stop-color="#E1EEF5"/></linearGradient></defs><rect width="640" height="520" rx="18" fill="url(#b)"/><g opacity=".2" stroke="#38BDF8"><path d="M80 430H560M140 120H500M92 250H548"/></g><g transform="translate(230 70)"><rect width="190" height="390" rx="16" fill="#26364A"/><rect x="28" y="35" width="134" height="300" rx="7" fill="#071626"/><g fill="#0D80C0"><rect x="48" y="58" width="94" height="18" rx="3"/><rect x="48" y="94" width="94" height="18" rx="3"/><rect x="48" y="130" width="94" height="18" rx="3"/><rect x="48" y="166" width="94" height="18" rx="3"/><rect x="48" y="202" width="94" height="18" rx="3"/><rect x="48" y="238" width="94" height="18" rx="3"/><rect x="48" y="274" width="94" height="18" rx="3"/></g><rect x="50" y="345" width="90" height="20" rx="4" fill="#F97316"/></g></svg>
