<svg width="1440" height="520" viewBox="0 0 1440 520" fill="none" xmlns="http://www.w3.org/2000/svg">
<defs><linearGradient id="bg" x1="0" y1="0" x2="1440" y2="520"><stop stop-color="#EAF5FB"/><stop offset="1" stop-color="#BFD8EA"/></linearGradient><radialGradient id="g" cx="0" cy="0" r="1" gradientTransform="translate(670 250) rotate(90) scale(210 620)" gradientUnits="userSpaceOnUse"><stop stop-color="#38BDF8" stop-opacity=".45"/><stop offset="1" stop-color="#38BDF8" stop-opacity="0"/></radialGradient></defs><rect width="1440" height="520" rx="18" fill="url(#bg)"/><rect width="1440" height="520" fill="url(#g)"/><g opacity=".38" stroke="#0D80C0" stroke-width="2"><path d="M50 380H380L460 300H760L845 205H1190"/><path d="M170 420H480L560 350H970L1040 280H1370"/><path d="M0 220H350L450 120H880L960 70H1420"/></g><g transform="translate(210 175)"><path d="M0 48C0 21.5 21.5 0 48 0h190c26.5 0 48 21.5 48 48v54c0 26.5-21.5 48-48 48H48c-26.5 0-48-21.5-48-48V48Z" fill="#D8E4EC" stroke="#7998AD"/><rect x="40" y="38" width="70" height="74" rx="8" fill="#12283A"/><rect x="132" y="38" width="108" height="74" rx="8" fill="#F8FAFC" stroke="#7998AD"/><path d="M150 56h70M150 75h70M150 94h70" stroke="#0D80C0" stroke-width="5" stroke-linecap="round"/></g><g transform="translate(580 130)"><path d="M0 210c90-160 240-160 330 0" stroke="#2B82B5" stroke-width="18" stroke-linecap="round"/><path d="M5 210c94-124 231-124 320 0" stroke="#fff" stroke-width="14" stroke-linecap="round"/><rect x="-20" y="190" width="110" height="62" rx="10" fill="#E6EEF4" stroke="#7998AD"/><rect x="245" y="190" width="110" height="62" rx="10" fill="#E6EEF4" stroke="#7998AD"/></g><g transform="translate(1030 98)"><rect width="260" height="330" rx="12" fill="#1E293B"/><rect x="34" y="34" width="192" height="262" rx="8" fill="#0B1725"/><g fill="#0D80C0"> <rect x="58" y="60" width="144" height="18" rx="3"/><rect x="58" y="94" width="144" height="18" rx="3"/><rect x="58" y="128" width="144" height="18" rx="3"/><rect x="58" y="162" width="144" height="18" rx="3"/><rect x="58" y="196" width="144" height="18" rx="3"/><rect x="58" y="230" width="144" height="18" rx="3"/></g></g></svg>
